<?xml version="1.0" ?><svg viewBox="0 0 512 512" xmlns="http://www.w3.org/2000/svg"><title/><g id="Pembroke_welsh_corgi"><path d="M205.3533,218.9652a14.9139,14.9139,0,0,0-14.8967,14.8965V244.35a14.8967,14.8967,0,1,0,29.7934,0V233.8617A14.9139,14.9139,0,0,0,205.3533,218.9652Z"/><path d="M306.5789,218.9652a14.914,14.914,0,0,0-14.8969,14.8965V244.35a14.8968,14.8968,0,1,0,29.7935,0V233.8617A14.914,14.914,0,0,0,306.5789,218.9652Z"/><path d="M308.4748,296.6636c-7.4357,0-5.855,8.3847-7.58,13.1459a19.8544,19.8544,0,0,1-38.1039-2.6654,11.17,11.17,0,0,0,2.0148-1.9648L279.8,286.009a11.1588,11.1588,0,0,0-8.7907-18.0313H241.0263a11.1576,11.1576,0,0,0-8.789,18.0313l14.9906,19.17a11.216,11.216,0,0,0,1.9264,1.9078c-3.6341,17.587-27.8855,21.3111-36.72,5.75a19.7939,19.7939,0,0,1-2.1053-5.4642c-.4387-1.9744-.1684-4.0809-.7-6.011a6.4739,6.4739,0,0,0-9.4014-3.8249c-6.9445,4.0635-1.6224,17.1046,1.421,22.2031a32.9654,32.9654,0,0,0,21.7153,15.3473v18.1445a32.6539,32.6539,0,0,0,65.3078,0v-18.16a32.9465,32.9465,0,0,0,21.6812-15.451C313.41,314.4488,319.8177,296.6636,308.4748,296.6636Zm-32.6032,56.5688a19.8539,19.8539,0,0,1-39.7078,0v-18.16a32.6754,32.6754,0,0,0,19.8016-12.6734,32.6714,32.6714,0,0,0,19.9062,12.6891Z"/><path d="M449.5482,65.398a26.0411,26.0411,0,0,0-26.03-4.4875c-56.7969,20.936-100.6056,55.7391-123.2131,76.2852a91.551,91.551,0,0,0-28.5869-4.5836H240.2654a91.551,91.551,0,0,0-28.5869,4.5836C189.0711,116.65,145.2623,81.8465,88.4654,60.9105c-18.829-6.9366-38.53,9.6086-34.9688,29.3406,9.7844,54.1829,32.5079,99.6907,49.8469,128.3235A95.8557,95.8557,0,0,0,144.6607,255.79l-4.8367,44.0137-.0067.0609-8.6722,78.92c-.0129.1171.0031.23-.0033.346-.9284,16.82,10.0719,32.3949,22.3591,42.7073,16.6391,13.9648,37.8812,21.9756,58.9165,26.4327a213.66,213.66,0,0,0,78.3093,1.6575c21.951-3.5955,44.13-10.7728,62.3317-23.8771,14.71-10.59,28.85-27.636,27.7853-46.92-.0064-.1164.01-.2289-.0033-.346l-8.6738-78.925c-.0014-.0165-.0037-.0321-.0053-.0485l-4.8379-44.0211a95.872,95.872,0,0,0,41.3186-37.2133c17.339-28.6375,40.0625-74.1453,49.8453-128.325A26.0407,26.0407,0,0,0,449.5482,65.398Zm-81.48,314.3227c-.1082,14.3464-10.045,26.2233-20.9681,34.4407-15.3894,11.5774-34.334,18.2206-53.0527,21.9951a194.5033,194.5033,0,0,1-67.9056,1.46c-19.5542-3.026-39.2981-9.0088-56.0282-19.8145-13.0607-8.4357-26.0705-21.4808-26.1958-38.081l8.1756-74.4,47.141-14.7117a60.988,60.988,0,0,0,42.2735-48.7516l9.2625-57.2531c.9459-5.8616,9.52-5.8773,10.4687.0015l9.2391,57.2516A60.9837,60.9837,0,0,0,312.75,290.609l47.1416,14.7117ZM445.89,87.9761a346.4667,346.4667,0,0,1-23.9415,77.2552q-6.8262,15.5824-14.9728,30.5418c-4.99,9.1747-10.0389,18.6051-16.7615,26.6449a83.7745,83.7745,0,0,1-32.2008,23.5769c-.1109.0461-.2035.1152-.31.1664a6.4125,6.4125,0,0,0-.5992.3215c-.1754.1082-.34.2254-.502.3484-.1641.1246-.3219.2528-.4727.3926a6.201,6.201,0,0,0-.4441.4562c-.1314.1485-.2557.3-.373.46a6.1926,6.1926,0,0,0-.343.5227c-.1041.1757-.2.3539-.2869.539s-.1613.3711-.23.5629c-.07.1949-.1309.39-.1816.5926a6.3353,6.3353,0,0,0-.1207.6226c-.0286.1938-.0516.3875-.062.586a6.3088,6.3088,0,0,0,.0067.7062c.0064.1125-.0094.2215.0031.3352l4.2672,38.8289L316.5623,278.39a48.256,48.256,0,0,1-33.4485-38.5734l-9.2375-57.25a17.8157,17.8157,0,0,0-17.8718-15.2188,18.0509,18.0509,0,0,0-17.87,15.2125l-9.2609,57.2531A48.2643,48.2643,0,0,1,195.4216,278.39l-41.8027,13.0457,4.2668-38.8285c.0125-.1137-.0033-.2227.0031-.3352a6.3088,6.3088,0,0,0,.0067-.7062c-.01-.1985-.0334-.3922-.0619-.586-.0313-.21-.069-.4171-.1207-.6226-.0508-.2024-.112-.3977-.1817-.5926-.0685-.1918-.1435-.3781-.23-.5629s-.1828-.3633-.2869-.539a6.1926,6.1926,0,0,0-.343-.5227c-.1173-.16-.2416-.3117-.373-.46a6.201,6.201,0,0,0-.4441-.4562c-.1508-.14-.3086-.268-.4727-.3926-.1621-.123-.3266-.24-.502-.3484a6.4125,6.4125,0,0,0-.5992-.3215c-.1068-.0512-.1994-.12-.31-.1664a83.2612,83.2612,0,0,1-39.6766-34.05c-16.7812-27.7094-38.764-71.7109-48.2-123.9688A13.44,13.44,0,0,1,84.0373,72.92c51.2652,18.8965,91.64,49.5828,114.549,69.7434a91.6525,91.6525,0,0,0-27.8475,21.9144,6.4015,6.4015,0,0,0,.6875,9.025,6.4712,6.4712,0,0,0,9.025-.6875,78.7494,78.7494,0,0,1,59.8141-27.5031h31.4531a78.7492,78.7492,0,0,1,59.8141,27.5031,6.47,6.47,0,0,0,9.025.6875,6.4015,6.4015,0,0,0,.6875-9.025,91.6525,91.6525,0,0,0-27.8475-21.9144c22.9086-20.1606,63.2838-50.8469,114.549-69.7434A13.44,13.44,0,0,1,445.89,87.9761Z"/></g></svg>