<?xml version="1.0" ?><svg data-name="Layer 1" id="Layer_1" viewBox="0 0 512 512" xmlns="http://www.w3.org/2000/svg"><path d="M432.86,140.6h-26V120.48a6.26,6.26,0,0,0-6.26-6.26h-85.4a74.46,74.46,0,0,0-53,21.94L256,142.4l-6.24-6.24a74.46,74.46,0,0,0-53-21.94h-85.4a6.26,6.26,0,0,0-6.26,6.26V140.6h-26a6.26,6.26,0,0,0-6.26,6.26V391.52a6.26,6.26,0,0,0,6.26,6.26H432.86a6.26,6.26,0,0,0,6.26-6.26V146.86A6.26,6.26,0,0,0,432.86,140.6ZM315.22,126.74h79.13V349.59H315.22a74.42,74.42,0,0,0-53,21.93V153.85L271.1,145A62,62,0,0,1,315.22,126.74Zm-197.57,0h79.13A62,62,0,0,1,240.9,145l8.84,8.83V371.52a74.42,74.42,0,0,0-53-21.93H117.65ZM85.4,153.12h19.72V355.85a6.26,6.26,0,0,0,6.26,6.27h85.4a62,62,0,0,1,44.12,18.27l4.87,4.87H85.4ZM426.6,385.26H266.23l4.87-4.87a62,62,0,0,1,44.12-18.27h85.4a6.26,6.26,0,0,0,6.26-6.27V153.12H426.6Z"/></svg>