<?xml version="1.0" ?><svg viewBox="0 0 32 32" xmlns="http://www.w3.org/2000/svg"><defs><style>.cls-1{fill:none;}</style></defs><title/><g data-name="Layer 2" id="Layer_2"><path d="M12,21a1,1,0,0,1-.71-.29,1,1,0,0,1,0-1.42l8-8a1,1,0,0,1,1.42,1.42l-8,8A1,1,0,0,1,12,21Z"/><path d="M12.5,14A1.5,1.5,0,1,1,14,12.5,1.5,1.5,0,0,1,12.5,14Zm0-2a.5.5,0,1,0,.5.5A.5.5,0,0,0,12.5,12Z"/><path d="M19.5,21A1.5,1.5,0,1,1,21,19.5,1.5,1.5,0,0,1,19.5,21Zm0-2a.5.5,0,1,0,.5.5A.5.5,0,0,0,19.5,19Z"/><path d="M19.71,28.5a1,1,0,0,1-.83-.44l-.23-.34a3.16,3.16,0,0,0-5.3,0l-.23.34a1,1,0,0,1-1.83-.59V27.3a3.52,3.52,0,0,0-1.42-3A3.09,3.09,0,0,0,7,23.92l-.36.13A1,1,0,0,1,5.5,22.5,3.57,3.57,0,0,0,6,19.2,3.28,3.28,0,0,0,3.84,17l-.13,0a1,1,0,0,1,0-1.92l.13,0A3.28,3.28,0,0,0,6,12.8,3.57,3.57,0,0,0,5.5,9.5,1,1,0,0,1,6.63,8L7,8.08a3.09,3.09,0,0,0,2.89-.42,3.52,3.52,0,0,0,1.42-3V4.53a1,1,0,0,1,1.83-.59l.23.34A3.19,3.19,0,0,0,16,5.72h0a3.19,3.19,0,0,0,2.65-1.44h0l.23-.34a1,1,0,0,1,1.83.59V4.7a3.52,3.52,0,0,0,1.42,3A3.09,3.09,0,0,0,25,8.08L25.37,8A1,1,0,0,1,26.5,9.5,3.57,3.57,0,0,0,26,12.8a3.28,3.28,0,0,0,2.2,2.2l.13,0a1,1,0,0,1,0,1.92l-.13,0A3.28,3.28,0,0,0,26,19.2a3.57,3.57,0,0,0,.54,3.3,1,1,0,0,1-1.13,1.55L25,23.92a3.09,3.09,0,0,0-2.89.42,3.52,3.52,0,0,0-1.42,3v.17a1,1,0,0,1-.69,1A1.18,1.18,0,0,1,19.71,28.5ZM16,24.28a5.1,5.1,0,0,1,3,1A5.42,5.42,0,0,1,21,22.72a5.11,5.11,0,0,1,3-1h0a5.64,5.64,0,0,1,.1-3.15A5.5,5.5,0,0,1,25.83,16a5.5,5.5,0,0,1-1.78-2.58,5.64,5.64,0,0,1-.1-3.15h0a5.11,5.11,0,0,1-3-1A5.42,5.42,0,0,1,19,6.73a5.1,5.1,0,0,1-3,1h0a5.1,5.1,0,0,1-3-1,5.36,5.36,0,0,1-1.91,2.55,5.11,5.11,0,0,1-3,1h0A5.64,5.64,0,0,1,8,13.42,5.5,5.5,0,0,1,6.17,16,5.5,5.5,0,0,1,8,18.58a5.64,5.64,0,0,1,.1,3.15h0a5.11,5.11,0,0,1,3,1A5.36,5.36,0,0,1,13,25.27,5.1,5.1,0,0,1,16,24.28Z"/></g><g id="frame"><rect class="cls-1" height="32" width="32"/></g></svg>