<?xml version="1.0" standalone="no"?>
<!DOCTYPE svg PUBLIC "-//W3C//DTD SVG 20010904//EN"
 "http://www.w3.org/TR/2001/REC-SVG-20010904/DTD/svg10.dtd">
<svg version="1.0" xmlns="http://www.w3.org/2000/svg"
 width="100%" height="100%" viewBox="0 0 1280.000000 1280.000000"
 preserveAspectRatio="xMidYMid meet">
<metadata>
Created by potrace 1.15, written by Peter Selinger 2001-2017
</metadata>
<g transform="translate(0.000000,1280.000000) scale(0.100000,-0.100000)"
fill="#000000" stroke="none">
<path d="M495 12785 c-243 -45 -388 -173 -462 -410 l-28 -90 0 -5885 c0 -5619
1 -5888 18 -5955 54 -210 170 -341 369 -413 l73 -27 5925 0 5925 0 75 23 c163
51 274 144 341 287 76 162 70 -429 67 6055 l-3 5815 -23 79 c-60 214 -176 364
-342 444 -97 47 -168 67 -284 82 -53 7 -2016 10 -5831 9 -4672 -1 -5763 -3
-5820 -14z m11170 -784 c178 -47 287 -153 336 -326 12 -43 14 -815 14 -5305 0
-5066 -1 -5257 -18 -5320 -24 -85 -64 -156 -103 -187 -41 -30 -122 -59 -216
-75 -105 -19 -10465 -19 -10579 -1 -206 33 -256 77 -297 259 -16 75 -17 366
-17 5319 0 4445 2 5248 14 5295 54 213 188 325 421 350 36 4 2389 7 5230 6
4236 -1 5174 -4 5215 -15z"/>
<path d="M9505 10842 c-48 -5 -135 -32 -187 -58 -26 -13 -112 -46 -190 -73
-79 -27 -211 -83 -295 -125 -83 -42 -157 -76 -163 -76 -24 0 -102 -74 -334
-321 -133 -140 -250 -273 -260 -294 -28 -57 -17 -138 27 -217 44 -78 119 -185
203 -289 35 -44 64 -83 64 -87 -1 -9 -118 -101 -185 -144 -37 -25 -58 -49 -82
-93 -41 -78 -87 -119 -154 -138 -161 -47 -644 -168 -848 -214 -93 -20 -139
-25 -231 -23 -63 1 -266 3 -450 4 -368 3 -425 8 -588 60 -218 69 -406 109
-592 125 -63 6 -169 15 -235 21 -177 16 -446 14 -535 -4 -140 -27 -187 -52
-365 -197 -246 -200 -419 -374 -520 -525 -56 -82 -166 -325 -295 -649 -107
-269 -151 -421 -165 -570 -15 -164 -62 -294 -143 -403 -68 -90 -305 -353 -409
-453 -111 -106 -212 -178 -303 -215 -189 -76 -541 -115 -737 -80 -40 7 -73 10
-73 7 0 -11 211 -143 273 -171 34 -15 102 -37 151 -49 49 -12 117 -34 150 -48
101 -42 116 -45 242 -44 66 1 132 -3 146 -8 19 -7 39 -3 92 21 l67 29 18 -22
17 -22 105 67 c102 64 104 65 107 41 2 -14 6 -25 9 -25 10 0 174 143 254 221
59 57 80 73 83 60 2 -9 7 -61 11 -116 3 -55 15 -208 26 -340 16 -198 17 -256
8 -325 -20 -149 -16 -379 9 -520 12 -69 26 -190 32 -270 6 -80 20 -187 32
-239 24 -113 22 -189 -15 -466 -14 -104 -30 -244 -36 -311 -12 -135 -21 -163
-87 -264 -143 -221 -162 -378 -57 -470 28 -25 42 -31 65 -26 26 5 30 2 44 -34
25 -62 82 -69 197 -25 36 14 39 14 76 -10 63 -42 97 -48 150 -24 25 11 56 29
68 41 l22 21 36 -32 c20 -17 42 -31 50 -31 22 0 81 56 100 96 27 57 13 107
-81 293 -46 92 -93 194 -104 227 -55 159 -62 638 -14 1032 19 160 27 201 58
296 14 43 26 102 26 130 0 79 65 297 122 409 11 23 57 87 101 142 125 156 172
274 197 496 24 216 57 287 186 404 63 57 102 85 118 85 50 0 177 -165 340
-444 167 -285 181 -326 180 -516 0 -123 -3 -142 -28 -210 -45 -119 -95 -206
-148 -257 -70 -67 -91 -113 -84 -177 3 -28 11 -218 17 -421 11 -365 11 -372
-12 -495 -12 -69 -24 -161 -27 -206 -4 -74 -2 -83 20 -108 20 -23 36 -29 113
-40 50 -8 119 -23 155 -33 47 -14 98 -20 185 -21 109 -1 129 1 217 29 110 36
120 48 111 135 -5 45 -12 56 -87 134 -118 123 -220 283 -259 405 -30 95 -37
165 -28 292 7 101 13 132 35 176 36 74 120 185 271 357 203 232 306 391 360
554 21 65 37 192 29 235 -6 32 -6 34 17 27 396 -110 635 -140 954 -118 l150
11 69 -57 c39 -31 76 -61 83 -67 10 -8 10 -18 -2 -50 -23 -65 -18 -121 35
-351 87 -379 130 -541 185 -700 30 -85 79 -235 109 -332 185 -597 218 -730
271 -1075 32 -207 34 -212 108 -365 35 -71 85 -193 111 -271 43 -125 54 -149
96 -194 59 -65 126 -100 204 -105 68 -5 157 12 203 38 30 18 34 18 65 3 44
-22 130 -29 168 -13 18 8 41 31 56 56 15 25 33 44 43 44 44 0 53 51 21 125
-11 26 -20 48 -20 50 0 2 26 -8 58 -23 50 -24 69 -27 157 -27 113 0 187 20
225 60 20 21 31 24 84 23 113 -3 132 18 115 124 -14 89 -17 96 -61 144 -30 33
-60 51 -121 75 -87 33 -169 92 -284 205 -68 67 -106 136 -123 224 -13 67 -13
333 0 510 5 74 16 241 25 370 39 606 70 851 141 1119 34 132 68 189 226 378
93 112 149 189 169 233 34 73 45 94 174 345 142 275 190 435 201 680 3 77 12
163 20 190 8 31 44 93 95 165 129 182 138 207 165 444 33 293 50 375 95 466
66 132 87 277 54 370 -19 53 -20 76 -2 62 27 -22 81 -23 115 -2 35 21 51 51
112 209 27 69 30 87 21 108 -16 36 -13 105 6 133 10 14 43 57 74 97 95 119
121 189 159 418 32 188 61 247 83 164 12 -45 3 -217 -13 -252 -18 -37 -6 -45
33 -22 79 45 303 223 355 282 87 98 168 217 192 280 l21 55 -23 72 c-19 61
-32 81 -94 146 -39 41 -107 129 -151 195 -162 245 -236 351 -262 374 -14 12
-69 43 -121 68 -52 25 -138 76 -190 113 -52 37 -105 72 -116 78 -44 23 -114
33 -279 41 -122 6 -213 17 -320 39 -144 29 -246 40 -310 34z m-1262 -6569 c18
-76 28 -142 102 -637 37 -252 98 -839 112 -1087 l9 -146 59 -69 c56 -65 57
-67 11 -24 -56 53 -145 181 -209 300 -38 69 -51 108 -71 210 -14 69 -39 166
-56 215 -76 221 -86 443 -40 865 22 206 55 450 60 450 3 0 14 -35 23 -77z
m478 -2130 c10 -12 5 -11 -18 6 -18 12 -33 24 -33 27 0 9 37 -15 51 -33z"/>
</g>
</svg>
