<?xml version="1.0" standalone="no"?>
<!DOCTYPE svg PUBLIC "-//W3C//DTD SVG 20010904//EN"
 "http://www.w3.org/TR/2001/REC-SVG-20010904/DTD/svg10.dtd">
<svg version="1.0" xmlns="http://www.w3.org/2000/svg"
 width="100%" height="100%" viewBox="0 0 1013.000000 1280.000000"
 preserveAspectRatio="xMidYMid meet">
<metadata>
Created by potrace 1.15, written by Peter Selinger 2001-2017
</metadata>
<g transform="translate(0.000000,1280.000000) scale(0.100000,-0.100000)"
fill="#000000" stroke="none">
<path d="M1495 12793 c-77 -17 -158 -66 -249 -152 -113 -108 -298 -362 -343
-473 -44 -109 -99 -385 -139 -703 -29 -229 -3 -429 65 -499 l33 -34 -29 -6
c-19 -5 -44 0 -74 13 -60 28 -69 26 -69 -9 0 -33 -5 -35 -98 -44 -113 -11
-222 -83 -295 -194 -157 -236 -276 -785 -294 -1352 -12 -400 32 -755 166
-1328 43 -185 84 -373 90 -417 7 -44 17 -98 22 -120 5 -22 34 -197 65 -390
106 -671 175 -1080 182 -1086 4 -3 23 -12 42 -19 19 -7 54 -25 77 -39 41 -25
43 -28 72 -136 33 -121 69 -281 100 -450 15 -77 32 -275 56 -658 l35 -549 -31
-241 c-29 -226 -34 -249 -74 -347 -109 -268 -210 -568 -264 -785 -35 -141 -40
-174 -131 -800 l-69 -480 20 -22 c20 -20 20 -23 5 -75 -8 -29 -55 -143 -103
-253 l-88 -199 -39 -11 c-39 -11 -40 -14 -68 -95 -24 -71 -28 -100 -28 -190 0
-66 -6 -126 -15 -156 -20 -66 -19 -187 1 -229 19 -41 95 -80 199 -102 89 -20
273 -22 345 -5 52 13 65 11 225 -23 345 -73 600 -119 727 -131 74 -6 80 -5
145 27 111 55 166 123 193 239 l13 54 -64 59 c-148 135 -448 369 -775 605 -86
62 -144 111 -148 124 -4 13 -10 71 -13 129 -5 88 -3 112 11 140 17 34 70 208
311 1023 l127 429 58 81 c135 191 289 485 408 782 l61 151 91 694 c50 382 92
698 94 704 10 34 313 -585 524 -1070 171 -393 172 -398 172 -502 0 -115 22
-311 61 -543 29 -175 29 -175 268 -845 132 -368 243 -692 247 -718 4 -30 20
-68 40 -99 23 -33 39 -75 49 -122 8 -40 28 -112 43 -162 24 -75 26 -94 16
-110 -23 -35 -57 -272 -58 -404 -1 -143 15 -202 65 -244 33 -28 62 -37 224
-71 221 -47 436 -53 564 -15 30 8 56 3 191 -40 150 -48 165 -51 346 -64 265
-19 317 -9 388 74 117 139 -65 341 -440 491 -83 33 -110 51 -248 172 -95 84
-123 100 -291 171 -113 48 -245 130 -245 151 0 7 -18 69 -40 138 -46 143 -48
157 -19 164 14 4 18 11 14 22 -27 66 -163 647 -290 1236 -164 765 -155 715
-175 965 -15 195 -28 284 -75 525 -31 160 -58 298 -61 308 -5 15 2 17 50 17
47 0 70 -8 168 -59 62 -32 125 -61 140 -65 15 -3 40 -17 55 -30 25 -22 28 -30
26 -77 -2 -51 -1 -55 42 -96 44 -42 47 -43 114 -43 101 0 347 -64 461 -120
121 -59 269 -135 290 -150 64 -45 216 -114 340 -156 98 -33 343 -155 415 -206
137 -97 203 -108 338 -56 65 25 98 32 156 32 l74 1 13 -60 c20 -98 52 -165
124 -261 38 -50 86 -126 107 -170 22 -43 64 -122 95 -174 l56 -95 11 -130 c19
-219 35 -552 35 -715 -2 -396 -16 -755 -30 -793 -8 -21 -25 -77 -39 -125 -13
-48 -44 -145 -69 -217 -25 -71 -46 -144 -46 -162 0 -38 -12 -46 -101 -67 -73
-17 -270 -81 -309 -101 -14 -6 -55 -26 -92 -43 -69 -32 -82 -48 -50 -59 27
-10 52 -35 52 -53 0 -26 84 -31 358 -23 l235 6 34 30 c52 45 53 48 92 232 11
50 27 108 36 130 17 40 94 143 135 180 l21 19 25 -32 c29 -36 33 -37 58 -19
15 11 20 36 27 133 24 318 36 419 79 656 16 92 30 178 30 190 0 13 13 76 30
140 16 65 34 146 41 182 19 109 21 109 124 13 109 -101 197 -163 324 -226 251
-125 448 -197 596 -216 28 -3 56 -9 62 -13 6 -4 12 -48 14 -103 4 -86 8 -102
42 -171 20 -42 37 -82 37 -90 0 -8 -17 -31 -38 -51 -34 -33 -43 -37 -92 -37
-63 0 -112 -15 -157 -48 -28 -19 -33 -30 -33 -62 0 -33 6 -43 35 -66 49 -37
100 -53 170 -54 114 -1 373 -79 555 -168 109 -52 134 -69 193 -130 101 -105
90 -141 -43 -142 -41 0 -97 -7 -125 -16 -83 -26 -229 -20 -533 22 -80 11 -119
12 -175 3 -78 -12 -260 -80 -291 -109 -18 -17 -18 -18 8 -35 14 -10 26 -23 26
-30 0 -19 64 -85 83 -85 9 0 37 -18 62 -40 l46 -40 173 0 c167 0 175 1 221 26
47 25 52 25 204 21 104 -3 191 -11 261 -25 86 -18 141 -22 310 -22 152 0 224
-4 280 -16 57 -13 148 -18 386 -21 l311 -4 51 55 c28 31 64 81 81 113 l31 57
0 224 c0 223 0 224 -30 309 -42 119 -39 212 11 318 27 56 22 144 -15 305 -15
63 -31 133 -36 155 -13 61 -26 105 -47 165 -11 30 -26 75 -33 100 -18 65 -102
239 -153 317 -24 38 -65 102 -92 143 -145 227 -500 616 -715 785 -41 32 -113
100 -160 149 -104 111 -268 276 -373 374 -43 40 -84 87 -92 105 -7 18 -25 43
-40 57 -27 25 -105 125 -105 134 0 3 -24 43 -54 88 -29 46 -77 130 -106 188
-29 58 -61 121 -71 141 -11 20 -19 43 -19 50 0 8 -16 38 -36 68 -30 44 -102
173 -173 309 -23 44 -156 169 -208 196 -72 36 -136 111 -277 321 -37 55 -83
114 -102 132 -33 30 -35 35 -29 75 8 52 -4 85 -48 135 -26 29 -36 54 -47 108
-16 83 -78 265 -120 351 -36 74 -148 224 -192 257 -18 14 -55 35 -83 48 -27
12 -60 30 -73 40 -12 10 -57 32 -100 50 -42 17 -104 45 -137 62 l-60 30 -254
-2 c-140 -2 -265 -7 -278 -12 -13 -5 -45 -9 -70 -9 -57 0 -206 -46 -228 -71
-10 -10 -26 -51 -37 -91 -44 -165 -63 -181 -236 -190 -70 -4 -149 -11 -177
-16 -323 -62 -311 -56 -301 -149 3 -32 10 -121 15 -198 8 -136 16 -171 60
-284 25 -61 86 -138 140 -175 20 -13 61 -29 91 -35 30 -6 89 -18 130 -26 47
-9 131 -15 226 -15 146 0 151 -1 173 -24 13 -14 49 -35 80 -47 31 -12 67 -32
81 -44 14 -12 41 -32 62 -44 90 -54 151 -153 153 -251 1 -36 5 -91 9 -122 7
-51 5 -62 -20 -108 -15 -28 -36 -56 -45 -61 -10 -5 -38 -44 -64 -86 -25 -43
-71 -112 -102 -153 -30 -41 -68 -103 -83 -137 -16 -34 -37 -66 -48 -72 -32
-17 -181 -24 -232 -12 -25 7 -88 16 -140 20 -91 8 -308 70 -425 121 -86 37
-174 71 -280 106 -60 19 -126 44 -147 55 -20 10 -52 19 -70 19 -41 0 -205 27
-219 35 -16 10 -258 96 -327 116 -34 10 -79 27 -100 38 -20 11 -59 26 -87 34
-27 7 -93 41 -145 75 -52 33 -121 77 -152 97 -53 34 -58 40 -67 88 -6 29 -45
226 -86 439 -71 366 -81 410 -200 805 -152 506 -140 463 -122 441 8 -10 16
-18 18 -18 2 0 3 317 1 705 l-3 705 248 246 c159 158 291 279 367 337 118 90
286 241 286 257 0 5 -22 38 -49 73 l-49 64 75 104 c118 163 94 149 253 149
155 0 221 10 295 44 82 37 138 144 165 314 7 43 19 75 32 90 40 42 112 75 202
94 100 20 136 39 136 69 0 39 -51 49 -201 39 -74 -5 -151 -12 -171 -14 -36 -4
-38 -2 -38 23 0 38 -29 61 -75 61 -61 0 -286 -49 -342 -75 -79 -36 -139 -80
-242 -180 -103 -100 -186 -198 -263 -314 -65 -98 -62 -95 -86 -80 -19 12 -31
6 -124 -57 -57 -39 -157 -99 -223 -134 -66 -35 -175 -98 -242 -141 l-123 -78
-5 27 c-17 84 -39 151 -70 211 l-34 68 34 16 c64 30 85 111 85 321 l0 142 101
13 c127 16 286 55 310 77 11 10 19 25 19 34 0 46 -72 61 -210 44 -58 -7 -166
-15 -240 -17 -115 -4 -227 -21 -283 -43 -11 -4 -17 6 -22 38 -26 176 -63 278
-116 322 -19 16 -77 49 -129 73 -52 24 -166 76 -253 116 l-158 72 6 65 c3 35
10 70 16 76 5 7 34 22 64 34 l54 22 63 -25 c88 -34 201 -42 301 -21 l77 17 24
76 c55 175 76 340 76 599 0 199 -16 390 -51 592 -19 114 -20 115 -114 275 -52
88 -118 195 -147 239 -50 75 -57 80 -130 113 -42 18 -111 40 -153 48 -72 14
-214 18 -260 8z"/>
</g>
</svg>
