<?xml version="1.0" standalone="no"?>
<!DOCTYPE svg PUBLIC "-//W3C//DTD SVG 20010904//EN"
 "http://www.w3.org/TR/2001/REC-SVG-20010904/DTD/svg10.dtd">
<svg version="1.0" xmlns="http://www.w3.org/2000/svg"
 width="100%" height="100%" viewBox="0 0 1280.000000 640.000000"
 preserveAspectRatio="xMidYMid meet">
<metadata>
Created by potrace 1.15, written by Peter Selinger 2001-2017
</metadata>
<g transform="translate(0.000000,640.000000) scale(0.100000,-0.100000)"
fill="#000000" stroke="none">
<path d="M3186 4758 c-3 -7 -8 -48 -11 -91 -7 -76 -8 -78 -49 -112 -58 -47
-182 -104 -243 -112 -41 -4 -70 1 -159 30 -152 50 -217 65 -304 69 l-75 3 -3
-55 c-3 -51 0 -58 28 -85 20 -20 30 -38 30 -59 0 -17 9 -60 21 -96 11 -35 22
-91 25 -125 11 -114 32 -135 141 -135 29 0 81 -9 114 -20 68 -23 199 -94 235
-127 l25 -23 -7 -247 c-7 -273 -12 -295 -73 -366 -18 -20 -59 -52 -91 -72 -57
-34 -59 -35 -167 -35 -106 0 -112 -1 -150 -29 -56 -41 -79 -77 -101 -159 -17
-62 -27 -80 -83 -140 -67 -73 -123 -168 -117 -199 3 -15 15 -18 87 -21 106 -4
125 7 146 86 30 106 44 129 94 154 42 21 62 23 231 26 174 3 187 2 203 -16 40
-44 83 -366 75 -558 -6 -122 -34 -226 -74 -273 -13 -16 -24 -36 -24 -45 0 -25
-27 -73 -45 -79 -24 -10 -18 -30 18 -63 65 -61 57 -59 264 -64 106 -3 193 -2
193 1 0 3 -22 38 -50 77 -27 39 -50 79 -50 89 0 10 25 52 56 93 l56 75 -5 114
c-3 62 -2 123 3 135 7 19 123 106 162 121 15 6 46 -7 88 -34 12 -8 16 -50 20
-229 l5 -220 -28 24 c-27 23 -30 23 -65 8 -62 -25 -72 -41 -73 -120 -1 -75 9
-107 40 -124 12 -6 160 -10 381 -10 l363 -1 30 28 c74 68 76 73 77 148 0 79
-12 128 -64 265 -20 52 -52 151 -72 220 -46 158 -57 178 -169 330 -51 69 -116
172 -145 229 -38 76 -69 122 -119 175 -64 68 -69 76 -113 206 -86 247 -98 322
-98 595 0 164 -2 188 -26 270 -20 69 -27 121 -31 225 l-5 135 32 29 c44 39 36
74 -33 144 l-52 53 -27 -31 c-16 -17 -28 -41 -28 -54 0 -26 -35 -76 -54 -76
-20 0 -106 94 -115 126 -8 30 -38 45 -45 22z"/>
<path d="M1017 4703 c-4 -3 -7 -27 -7 -52 -1 -79 -16 -121 -60 -166 -52 -53
-115 -85 -188 -95 -73 -10 -138 0 -291 44 -78 23 -157 39 -213 43 l-88 6 0
-57 c0 -50 4 -60 29 -84 16 -15 41 -45 55 -66 25 -37 26 -46 26 -163 0 -124 0
-125 29 -154 28 -28 33 -29 118 -29 124 0 163 -21 297 -160 156 -164 156 -168
27 -565 -15 -45 -22 -53 -76 -82 -47 -25 -60 -37 -60 -55 0 -23 -2 -23 -136
-28 -169 -6 -171 -8 -275 -141 -44 -57 -161 -265 -190 -339 -25 -63 -16 -73
64 -68 37 2 84 12 104 22 43 21 121 123 148 193 9 25 23 49 31 54 8 5 82 6
164 3 172 -5 275 -29 299 -67 9 -14 16 -67 19 -152 3 -72 15 -202 27 -290 l21
-160 -23 -80 c-22 -75 -25 -80 -57 -86 -43 -9 -118 -83 -132 -129 -23 -76 3
-108 106 -135 75 -19 293 -21 318 -2 22 16 23 31 14 174 l-8 122 58 148 c52
133 63 154 113 206 64 65 85 70 131 29 28 -25 33 -39 49 -132 11 -58 24 -132
31 -165 11 -55 10 -64 -11 -113 -12 -28 -27 -52 -32 -52 -5 0 -26 9 -48 20
-51 26 -62 25 -90 -5 -18 -20 -24 -39 -28 -98 -5 -85 4 -109 51 -134 29 -16
65 -18 407 -14 249 2 379 7 388 14 43 35 63 129 51 239 -24 210 -114 456 -225
616 -57 81 -69 106 -84 171 -10 41 -32 79 -100 170 -48 64 -111 139 -140 166
-69 67 -78 87 -101 223 -17 100 -28 136 -78 242 -103 218 -105 228 -102 496 2
225 1 232 -24 301 -31 87 -31 89 1 165 22 52 25 74 22 130 -3 57 -8 72 -30 94
l-25 26 -7 -27 c-4 -15 -18 -44 -32 -64 -13 -19 -24 -43 -24 -52 0 -10 -6 -19
-12 -22 -27 -9 -46 7 -69 54 -34 74 -108 136 -132 112z"/>
<path d="M5412 4698 c-7 -7 -12 -36 -12 -65 0 -71 -18 -109 -73 -160 -58 -53
-149 -83 -254 -83 -63 0 -98 8 -210 45 -116 39 -145 45 -218 45 -48 0 -87 -4
-90 -11 -15 -23 9 -82 60 -150 l55 -72 0 -153 c0 -111 3 -155 13 -161 6 -4 62
-8 122 -9 78 0 120 -5 145 -17 44 -20 255 -232 269 -270 28 -73 9 -184 -60
-375 -45 -123 -34 -111 -168 -191 -52 -31 -61 -33 -161 -34 -101 -2 -109 -4
-144 -31 -69 -52 -188 -237 -266 -413 -40 -90 -34 -103 49 -103 39 0 71 7 101
23 41 20 46 27 63 87 11 36 28 77 38 92 51 71 262 99 430 58 129 -32 129 -32
129 -192 0 -92 6 -165 20 -236 24 -125 25 -258 2 -326 -18 -51 -28 -61 -74
-70 -31 -7 -118 -107 -118 -136 0 -29 36 -65 101 -100 84 -45 117 -51 242 -43
l107 6 0 154 c0 176 7 210 65 345 47 107 100 187 139 207 22 12 29 11 69 -12
59 -35 104 -88 113 -133 15 -80 -12 -272 -45 -324 -9 -12 -14 -11 -34 8 -30
28 -36 28 -100 -4 -85 -43 -97 -58 -97 -126 0 -56 1 -58 27 -58 16 0 39 -11
56 -27 l28 -28 390 -3 c375 -3 389 -2 389 16 0 11 13 39 30 63 26 39 30 53 30
117 0 196 -96 479 -232 681 -31 44 -62 108 -80 162 -38 113 -82 179 -205 309
-54 58 -104 119 -111 135 -6 17 -19 75 -28 130 -16 102 -26 131 -89 243 -34
63 -35 66 -35 181 0 79 -6 146 -20 207 -28 132 -42 302 -38 476 3 150 4 156
30 190 l27 35 -47 47 c-26 25 -55 46 -64 46 -30 0 -58 -49 -58 -101 0 -45 -2
-49 -23 -49 -34 0 -64 38 -80 99 -7 29 -20 57 -28 62 -20 13 -63 11 -77 -3z"/>
<path d="M7652 4698 c-7 -7 -12 -38 -12 -69 0 -76 -11 -101 -65 -154 -93 -89
-230 -111 -395 -61 -133 41 -268 67 -324 64 l-51 -3 0 -51 c1 -48 4 -56 51
-107 58 -63 70 -107 58 -220 -13 -129 22 -167 158 -167 118 -1 151 -18 275
-147 56 -59 109 -121 118 -139 21 -44 19 -116 -6 -199 -12 -39 -34 -114 -50
-169 -15 -54 -35 -106 -44 -115 -8 -10 -38 -28 -65 -41 -43 -20 -50 -28 -50
-52 l0 -28 -125 0 c-149 0 -174 -8 -234 -76 -91 -104 -255 -395 -249 -444 3
-23 7 -25 60 -28 80 -4 135 22 188 89 48 61 80 120 80 148 0 11 9 25 19 30 28
15 293 4 374 -15 107 -26 105 -22 117 -219 5 -93 17 -215 25 -269 19 -126 19
-166 -2 -240 -19 -71 -28 -86 -55 -86 -55 0 -138 -100 -138 -164 0 -47 6 -58
40 -76 51 -27 128 -40 245 -40 173 0 167 -6 159 174 l-7 143 54 138 c48 122
61 146 113 202 32 34 65 63 73 63 51 0 103 -61 103 -122 0 -18 9 -73 20 -122
25 -112 25 -149 0 -204 -17 -38 -23 -43 -42 -36 -13 4 -32 13 -43 20 -48 34
-87 8 -105 -71 -23 -102 8 -168 87 -185 21 -4 200 -5 398 -1 l360 6 24 44 c80
146 -26 567 -211 837 -36 52 -60 101 -68 135 -7 30 -17 63 -23 74 -24 47 -187
253 -220 278 -59 45 -83 98 -101 221 -14 93 -24 126 -71 225 -111 235 -110
231 -110 511 0 245 0 245 -29 322 l-28 77 26 56 c21 46 26 73 26 134 0 73 -2
79 -30 106 -29 28 -30 28 -30 6 0 -12 -11 -39 -25 -59 -14 -20 -25 -44 -25
-54 0 -21 -31 -39 -49 -28 -8 4 -28 34 -45 66 -18 33 -46 68 -65 81 -39 27
-43 27 -59 11z"/>
<path d="M11642 4698 c-7 -7 -12 -36 -12 -65 0 -71 -18 -109 -73 -160 -58 -54
-149 -83 -256 -83 -64 0 -96 7 -206 45 -115 40 -140 45 -216 45 -71 0 -88 -3
-93 -16 -10 -27 12 -88 47 -130 68 -81 67 -76 67 -234 0 -80 5 -152 10 -160 7
-12 33 -15 122 -16 78 0 123 -5 147 -16 52 -24 257 -231 272 -275 20 -63 6
-174 -41 -313 -55 -163 -62 -174 -118 -206 -26 -15 -65 -38 -87 -52 -35 -23
-49 -25 -133 -24 -112 2 -149 -13 -209 -85 -69 -82 -164 -246 -222 -382 l-23
-53 -24 36 c-14 20 -57 78 -95 128 -38 50 -92 137 -120 193 -36 74 -69 123
-117 177 -66 71 -70 79 -120 223 -77 220 -83 255 -91 540 -7 223 -11 261 -34
348 -20 74 -27 124 -28 209 l-2 111 32 26 c33 28 38 49 20 84 -16 31 -91 107
-105 107 -19 0 -54 -50 -54 -75 0 -27 -36 -75 -56 -75 -25 0 -114 98 -114 125
0 20 -5 25 -24 25 -22 0 -24 -4 -31 -85 -7 -84 -7 -85 -48 -121 -62 -53 -177
-105 -246 -111 -49 -5 -76 0 -167 30 -149 50 -227 67 -306 67 l-68 0 0 -54 c0
-45 4 -58 30 -84 19 -21 30 -42 30 -61 0 -16 9 -58 20 -93 11 -34 23 -90 26
-123 11 -121 20 -129 152 -138 74 -5 94 -11 187 -56 57 -28 120 -65 140 -82
l35 -31 -6 -247 c-6 -215 -9 -252 -27 -294 -24 -57 -96 -125 -173 -163 -50
-25 -60 -26 -138 -19 -69 5 -91 4 -121 -11 -56 -26 -101 -89 -121 -168 -15
-61 -25 -78 -81 -139 -74 -81 -128 -177 -119 -213 6 -24 9 -24 85 -21 103 4
126 19 146 95 26 95 45 124 100 152 48 24 58 25 234 25 l185 0 18 -30 c32 -55
61 -271 62 -465 1 -156 -1 -183 -22 -247 -12 -39 -33 -84 -46 -100 -12 -15
-26 -44 -30 -63 -3 -19 -18 -47 -33 -62 l-27 -28 35 -36 c62 -66 92 -74 287
-74 94 0 172 2 172 5 0 3 -23 40 -51 81 -36 54 -49 82 -45 97 3 12 29 54 57
92 l51 70 -6 117 c-3 64 -3 124 0 132 3 9 43 41 89 71 l83 56 34 -17 c71 -36
68 -25 68 -261 l0 -213 -20 20 c-25 25 -41 25 -90 0 -44 -22 -51 -39 -53 -119
-2 -65 18 -106 59 -121 14 -6 176 -10 373 -10 l347 0 57 55 57 56 0 77 c0 63
-7 95 -36 177 -31 87 -83 244 -129 396 -8 25 -17 53 -21 62 -5 15 1 17 53 17
41 0 72 7 103 23 40 20 46 28 65 89 12 36 29 78 38 91 45 69 262 98 428 57
129 -32 129 -32 129 -188 0 -87 7 -164 21 -242 26 -143 24 -284 -6 -345 -16
-31 -27 -41 -55 -47 -38 -7 -115 -84 -126 -126 -10 -35 22 -71 100 -113 83
-45 113 -50 243 -42 l101 6 4 176 3 176 43 107 c50 124 111 222 153 243 26 14
32 14 67 -4 53 -27 109 -92 118 -137 15 -81 -11 -271 -45 -324 -9 -12 -14 -11
-34 8 -30 28 -36 28 -100 -4 -85 -43 -97 -58 -97 -126 0 -56 1 -58 27 -58 16
0 39 -11 56 -27 l28 -28 389 -3 388 -3 7 29 c3 16 17 44 31 63 79 107 -31 525
-208 787 -29 42 -62 109 -78 156 -47 139 -69 172 -217 327 -46 47 -89 102 -97
121 -9 19 -22 82 -31 139 -15 92 -22 114 -68 194 l-52 90 -2 125 c-1 81 -9
159 -23 220 -27 126 -43 334 -38 496 3 124 5 133 30 166 l27 35 -47 47 c-26
25 -55 46 -64 46 -30 0 -58 -49 -58 -102 0 -48 -1 -49 -27 -46 -33 4 -69 53
-79 107 -4 20 -11 42 -17 49 -12 15 -69 16 -85 0z"/>
<path d="M6415 3918 c-111 -21 -227 -97 -283 -185 -51 -82 -65 -141 -60 -261
4 -115 25 -180 84 -257 38 -51 136 -112 218 -137 99 -31 253 -31 352 0 82 25
180 86 218 137 60 78 80 141 84 260 4 125 -12 189 -67 269 -102 147 -321 217
-546 174z m285 -109 c57 -24 131 -99 155 -155 61 -146 25 -341 -79 -430 -117
-100 -335 -100 -452 0 -105 90 -140 283 -79 431 34 81 128 156 218 175 64 14
181 3 237 -21z"/>
<path d="M8662 3905 c-137 -31 -240 -103 -289 -203 -36 -74 -45 -220 -18 -305
36 -114 127 -195 270 -240 56 -17 94 -22 190 -21 131 0 206 13 303 51 l62 25
0 164 0 164 -170 0 -170 0 0 -40 0 -40 105 0 105 0 0 -104 0 -104 -32 -12
c-18 -7 -87 -15 -154 -17 -134 -6 -204 8 -276 53 -136 86 -154 359 -31 476 66
63 208 96 342 79 84 -11 131 -26 209 -65 l52 -26 0 54 0 54 -52 20 c-92 36
-130 43 -258 47 -87 3 -144 0 -188 -10z"/>
<path d="M3900 3420 l0 -432 278 4 c254 4 282 6 336 26 107 39 177 114 218
232 32 91 32 259 0 341 -47 120 -123 196 -231 230 -58 18 -99 22 -333 26
l-268 6 0 -433z m481 270 c62 -17 102 -51 133 -114 26 -51 30 -69 30 -150 0
-110 -21 -179 -67 -224 -54 -52 -91 -62 -237 -62 l-130 0 0 280 0 280 118 0
c64 0 133 -5 153 -10z"/>
</g>
</svg>
