<?xml version="1.0"  ?><svg  viewBox="0 0 24 24" xmlns="http://www.w3.org/2000/svg"><title/><g id="tie"><path fill="white" d="M18,19.8C15.14,5.62,15.34,7.55,15.79,6.68,16.57,5.16,17,4.57,17,3.49A3.4,3.4,0,0,0,13.6,0C10.61,0,9.29-.28,8,1a3.43,3.43,0,0,0-.64,3.92A16.57,16.57,0,0,0,8.54,7.19L6,19.8a1,1,0,0,0,.47,1.06C12,24.14,11.62,24,12,24s.09.11,5.51-3.14A1,1,0,0,0,18,19.8ZM9.4,2.42c.54-.54.77-.42,4.2-.42A1.41,1.41,0,0,1,15,3.49c0,.49-.18.7-1,2.28a2.26,2.26,0,0,1-4,0C9.34,4.41,8.49,3.35,9.4,2.42ZM12,21.83,8.12,19.5,10.29,8.64a4.21,4.21,0,0,0,3.42,0l2.17,10.87Z"/></g></svg>  